<svg height="766" width="720" xmlns="http://www.w3.org/2000/svg">
<rect height="766" fill="#555" width="720"></rect>
<text fill="#7f7" font-family="Courier New" font-size="12" xml:space="preserve">
<tspan x="10" y="26">└─┬ trash@4.0.1 </tspan>
<tspan x="10" y="42">  ├── escape-string-applescript@1.0.0 </tspan>
<tspan x="10" y="58">  ├─┬ fs-extra@0.30.0 </tspan>
<tspan x="10" y="74">  │ ├── graceful-fs@4.1.11 </tspan>
<tspan x="10" y="90">  │ ├── jsonfile@2.4.0 </tspan>
<tspan x="10" y="106">  │ ├── klaw@1.3.1 </tspan>
<tspan x="10" y="122">  │ ├── path-is-absolute@1.0.1 </tspan>
<tspan x="10" y="138">  │ └── rimraf@2.6.1 </tspan>
<tspan x="10" y="154">  ├─┬ globby@6.1.0 </tspan>
<tspan x="10" y="170">  │ ├─┬ array-union@1.0.2 </tspan>
<tspan x="10" y="186">  │ │ └── array-uniq@1.0.3 </tspan>
<tspan x="10" y="202">  │ ├─┬ glob@7.1.1 </tspan>
<tspan x="10" y="218">  │ │ ├── fs.realpath@1.0.0 </tspan>
<tspan x="10" y="234">  │ │ ├─┬ inflight@1.0.6 </tspan>
<tspan x="10" y="250">  │ │ │ └── wrappy@1.0.2 </tspan>
<tspan x="10" y="266">  │ │ ├── inherits@2.0.3 </tspan>
<tspan x="10" y="282">  │ │ ├─┬ minimatch@3.0.3 </tspan>
<tspan x="10" y="298">  │ │ │ └─┬ brace-expansion@1.1.6 </tspan>
<tspan x="10" y="314">  │ │ │   ├── balanced-match@0.4.2 </tspan>
<tspan x="10" y="330">  │ │ │   └── concat-map@0.0.1 </tspan>
<tspan x="10" y="346">  │ │ └── once@1.4.0 </tspan>
<tspan x="10" y="362">  │ ├── object-assign@4.1.1 </tspan>
<tspan x="10" y="378">  │ └─┬ pinkie-promise@2.0.1 </tspan>
<tspan x="10" y="394">  │   └── pinkie@2.0.4 </tspan>
<tspan x="10" y="410">  ├── path-exists@3.0.0 </tspan>
<tspan x="10" y="426">  ├── pify@2.3.0 </tspan>
<tspan x="10" y="442">  ├─┬ run-applescript@3.0.0 </tspan>
<tspan x="10" y="458">  │ └─┬ execa@0.4.0 </tspan>
<tspan x="10" y="474">  │   ├─┬ cross-spawn-async@2.2.5 </tspan>
<tspan x="10" y="490">  │   │ ├─┬ lru-cache@4.0.2 </tspan>
<tspan x="10" y="506">  │   │ │ ├── pseudomap@1.0.2 </tspan>
<tspan x="10" y="522">  │   │ │ └── yallist@2.1.2 </tspan>
<tspan x="10" y="538">  │   │ └─┬ which@1.2.14 </tspan>
<tspan x="10" y="554">  │   │   └── isexe@2.0.0 </tspan>
<tspan x="10" y="570">  │   ├── is-stream@1.1.0 </tspan>
<tspan x="10" y="586">  │   ├── npm-run-path@1.0.0 </tspan>
<tspan x="10" y="602">  │   ├── path-key@1.0.0 </tspan>
<tspan x="10" y="618">  │   └── strip-eof@1.0.0 </tspan>
<tspan x="10" y="634">  ├── uuid@2.0.3 </tspan>
<tspan x="10" y="650">  └─┬ xdg-trashdir@2.1.0 </tspan>
<tspan x="10" y="666">    ├── @sindresorhus/df@1.0.1 </tspan>
<tspan x="10" y="682">    ├── mount-point@1.2.0 </tspan>
<tspan x="10" y="698">    ├─┬ pinkie-promise@1.0.0 </tspan>
<tspan x="10" y="714">    │ └── pinkie@1.0.0 </tspan>
<tspan x="10" y="730">    ├── user-home@1.1.1 </tspan>
<tspan x="10" y="746">    └── xdg-basedir@1.0.1</tspan>
</text>
</svg>
